<svg xmlns="http://www.w3.org/2000/svg" xmlns:xlink="http://www.w3.org/1999/xlink" fill="none" version="1.1" width="443" height="443" viewBox="0 0 443 443"><defs><clipPath id="master_svg0_295_56454"><rect x="0" y="0" width="443" height="443" rx="0"/></clipPath><linearGradient x1="-0.18159009516239166" y1="-0.4661065638065338" x2="0.5028628937522844" y2="0.8129398640606353" id="master_svg1_295_56464"><stop offset="0%" stop-color="#2D73A2" stop-opacity="1"/><stop offset="100%" stop-color="#263468" stop-opacity="1"/></linearGradient><linearGradient x1="-1.5351207256317139" y1="-0.06380368024110794" x2="-0.26492291500185106" y2="2.2947253043303837" id="master_svg2_295_56467"><stop offset="40.779998898506165%" stop-color="#F4DA37" stop-opacity="1"/><stop offset="74.29999709129333%" stop-color="#F2612C" stop-opacity="1"/></linearGradient><linearGradient x1="-0.6076258420944214" y1="-2.2558696269989014" x2="2.907880621889141" y2="1.3830453168036425" id="master_svg3_295_56461"><stop offset="0%" stop-color="#2D73A2" stop-opacity="1"/><stop offset="100%" stop-color="#263468" stop-opacity="1"/></linearGradient><linearGradient x1="-2.3629961013793945" y1="-1.8954817056655884" x2="3.5472858086475707" y2="1.8896343932972188" id="master_svg4_295_49974"><stop offset="40.779998898506165%" stop-color="#F4DA37" stop-opacity="1"/><stop offset="74.29999709129333%" stop-color="#F2612C" stop-opacity="1"/></linearGradient></defs><g><g><g><g clip-path="url(#master_svg0_295_56454)"><g><g><path d="M346.51425756835937,320.2006201171875C344.2992575683594,311.7836201171875,342.4392575683594,303.2776201171875,340.40125756835937,294.7726201171875C328.08525756835934,244.0046201171875,315.68125756835934,193.2366201171875,303.3662575683594,142.4688201171875C299.6452575683594,126.8752201171875,296.1892575683594,111.2816201171875,292.4682575683594,95.6880201171875C291.93725756835937,93.2958201171875,291.67125756835935,90.1948201171875,288.3932575683594,90.1062201171875C285.8232575683594,90.0176201171875,285.11425756835933,92.8528201171875,284.05125756835935,94.7134201171875C282.9002575683594,96.6626201171875,281.92525756835937,98.7004201171875,280.95025756835935,100.6496201171875C260.3072575683594,140.2538201171875,239.66325756835937,179.85762011718748,218.93055756835938,219.4626201171875C217.69015756835938,221.8546201171875,217.06995756835937,225.5756201171875,213.96895756835937,225.7526201171875C210.60215756835936,225.9296201171875,210.24775756835936,222.0316201171875,209.09595756835938,219.6396201171875C194.21115756835937,190.31262011718752,179.68075756835938,160.80902011718752,164.61875756835937,131.57102011718752C160.1887575683594,122.8882201171875,156.64475756835938,114.8256201171875,162.93535756835936,105.6998201171875C163.55555756835938,104.8138201171875,163.11255756835936,103.4848201171875,161.2519575683594,102.7760201171875C157.88515756835938,105.4340201171875,154.25255756835938,108.1806201171875,149.2023575683594,112.1676201171875C157.7965575683594,95.77662011718749,171.97255756835938,88.1570201171875,185.17395756835936,79.3856201171875C171.79535756835938,80.4488201171875,160.27735756835938,85.3218201171875,149.99975756835937,93.5616201171875C123.95134756835938,114.5598201171875,109.95255756835937,161.5178201171875,131.48235756835936,195.80562011718752C133.60875756835938,199.1726201171875,135.38075756835937,202.6286201171875,137.41855756835938,205.99462011718748C150.97435756835938,228.0566201171875,168.16275756835938,247.5486201171875,182.78175756835938,268.9006201171875C193.32515756835937,284.3176201171875,201.91935756835937,300.61962011718754,204.66595756835937,319.4916201171875C205.99495756835938,328.7056201171875,203.77995756835938,337.7436201171875,204.31155756835938,347.1346201171875C224.15825756835937,303.6326201171875,248.87725756835937,262.9646201171875,270.9382575683594,219.8166201171875C273.9512575683594,223.8036201171875,274.12825756835934,226.6386201171875,274.5712575683594,229.3856201171875C279.71025756835934,258.7116201171875,284.84925756835935,288.0386201171875,289.8992575683594,317.3656201171875C290.7852575683594,322.5036201171875,291.31625756835933,327.46562011718754,298.49325756835935,327.3766201171875C312.5812575683594,327.1116201171875,326.57925756835937,327.2886201171875,340.6672575683594,327.3766201171875C345.98325756835936,327.5546201171875,347.8432575683594,325.42762011718753,346.51425756835937,320.2006201171875ZM319.2252575683594,291.22862011718746C317.27625756835937,295.8356201171875,315.41625756835936,300.7086201171875,310.7202575683594,304.9616201171875C311.34025756835933,298.8476201171875,312.13725756835936,293.79762011718753,312.4032575683594,288.74762011718747C313.46625756835937,273.0656201171875,307.79625756835935,258.80062011718746,301.59425756835935,244.8906201171875C294.5062575683594,228.9426201171875,286.4432575683594,213.4376201171875,279.4442575683594,197.48962011718748C273.3312575683594,183.49062011718752,268.81225756835937,168.9602201171875,270.7612575683594,153.2780201171875C271.7362575683594,145.9242201171875,275.7232575683594,138.7476201171875,281.12725756835937,131.6596201171875C278.7352575683594,140.4310201171875,278.20425756835937,144.2408201171875,278.2922575683594,148.4936201171875C278.3812575683594,160.8976201171875,283.5202575683594,172.0612201171875,288.9242575683594,182.95862011718748C297.7842575683594,200.7676201171875,308.6822575683594,217.6016201171875,316.1242575683594,236.1186201171875C323.2122575683594,254.1046201171875,327.1112575683594,272.44462011718747,319.2252575683594,291.22862011718746Z" fill="url(#master_svg1_295_56464)" fill-opacity="1" style="mix-blend-mode:passthrough"/></g><g><path d="M319.22555971679685,291.22866796874996C317.27625971679686,295.83566796875,315.41575971679686,300.70866796875,310.71985971679686,304.96166796875C311.34015971679685,298.84766796875,312.1375597167969,293.79766796875003,312.40325971679687,288.74766796874997C313.4665597167969,273.06566796875,307.7960597167969,258.80066796875,301.5940597167969,244.89066796875C294.50605971679687,228.94246796875,286.4434597167969,213.43746796875,279.4440897167969,197.48946796875C273.33069971679686,183.49066796875002,268.8120897167969,168.96026796875,270.7613047167969,153.27806796875C271.73590971679687,145.92426796875,275.7229097167969,138.74766796875,281.1275597167969,131.65966796875C278.73530971679685,140.43105796875,278.2037297167969,144.24086796875,278.2922997167969,148.49366796875C278.38090971679685,160.89766796875,283.51965971679687,172.06126796875,288.9242597167969,182.95906796875C297.7842597167969,200.76766796875,308.68205971679686,217.60166796875,316.12455971679685,236.11866796875C323.21245971679684,254.10466796875,327.11095971679686,272.44466796874997,319.22555971679685,291.22866796874996Z" fill="#FFFFFF" fill-opacity="1" style="mix-blend-mode:passthrough"/></g><g><path d="M172.68134057617186,369.72805761718746C172.68134057617186,361.3110576171875,172.94714057617188,354.3110576171875,172.59274057617188,347.40105761718746C171.70674057617188,325.8710576171875,161.96074057617187,307.4420576171875,151.41734057617188,289.4560576171875C139.45634057617187,268.8120576171875,126.16634057617188,248.96605761718752,114.29394057617188,228.2336576171875C103.92775057617187,210.1592576171875,95.59934957617187,191.0216576171875,95.95375067617188,169.4918576171875C96.13094757617188,159.3028576171875,100.56095057617188,149.0252576171875,106.85154057617187,138.6590576171875C104.90235057617187,150.8858576171875,104.81375057617187,156.11325761718751,105.43395057617188,162.0494576171875C107.38314057617188,178.9720576171875,115.97734057617188,193.3252576171875,124.92594057617188,207.32405761718752C139.54494057617188,230.27145761718748,156.91054057617188,251.5350576171875,169.7575405761719,275.6350576171875C182.1615405761719,298.9360576171875,190.22414057617186,323.2130576171875,182.1615405761719,349.97005761718754C180.21234057617187,356.4380576171875,178.44034057617188,363.2600576171875,172.68134057617186,369.72805761718746Z" fill="url(#master_svg2_295_56467)" fill-opacity="1" style="mix-blend-mode:passthrough"/></g><g><path d="M192.26200522460937,105.1680787109375C192.35060522460938,104.9021787109375,192.43920522460937,104.6364787109375,192.43920522460937,104.37057871093751C201.74220522460936,105.07947871093751,210.95660522460938,105.6109787109375,220.25960522460937,106.4969787109375C223.27200522460936,106.7628787109375,225.57560522460938,106.2311787109375,228.14500522460938,104.5478787109375C235.32160522460939,99.5862787109375,242.6754052246094,94.8904787109375,249.94060522460939,90.1060787109375C255.87680522460937,86.2075787109375,261.81300522460936,82.2206287109375,268.72380522460935,77.6134287109375C266.7746052246094,77.4362287109375,265.9772052246094,77.3476287109375,265.2684052246094,77.2590287109375C250.47220522460935,76.0186287109375,235.67600522460938,74.7782287109375,220.87980522460938,73.4492272109375C218.31040522460938,73.1834247109375,216.27260522460938,73.7150297109375,214.1462052246094,75.1326287109375C205.99500522460937,80.6258287109375,197.75520522460937,85.9417787109375,189.60400522460938,91.3463787109375C184.37660522460936,94.8017787109375,179.14919522460937,98.3457787109375,173.30160522460938,102.3327787109375C177.11140522460937,102.7757787109375,179.85799522460937,103.1301787109375,182.60460522460937,103.3959787109375C187.92060522460937,103.9275787109375,187.92060522460937,103.8389787109375,187.03460522460938,109.68657871093751C184.9082052246094,115.0911787109375,184.37660522460936,120.9387787109375,183.22480522460938,126.6091787109375C181.27560522460936,135.9121787109375,181.54140522460938,136.0008787109375,190.49000522460938,136.0008787109375C192.43920522460937,136.0008787109375,193.05940522460938,135.3806787109375,192.97080522460936,133.2541787109375C192.70500522460938,124.5713787109375,192.61640522460937,115.8000787109375,192.43920522460937,107.11717871093751C192.26200522460937,106.3198787109375,192.26200522460937,105.69967871093749,192.26200522460937,105.1680787109375Z" fill="url(#master_svg3_295_56461)" fill-opacity="1" style="mix-blend-mode:passthrough"/></g><g><path d="M251.26959233398438,96.3967688671875C250.29499233398437,94.8019665571875,249.3203923339844,94.2703678671875,247.72559233398437,95.4221708671875C240.7261923339844,100.2065688671875,233.72679233398438,104.9023888671875,226.72739233398437,109.5981888671875C225.39839233398436,109.6867888671875,224.06939233398438,109.8639888671875,222.8289923339844,109.7753888671875C215.47519233398438,109.2437888671875,208.0327923339844,108.6235888671875,200.67900233398439,108.0919888671875C198.99560233398438,108.0033888671875,197.2236023339844,107.2945888671875,196.86919433398438,110.2183888671875C196.07180033398438,116.3317888671875,196.24899733398436,122.2679888671875,198.72980233398437,127.9383888671875C206.08360233398437,150.44278886718752,234.1713923339844,155.90338886718752,248.96759233398438,138.0061888671875C251.0053923339844,135.61398886718752,251.72959233398439,134.5559888671875,253.80109233398437,130.4157888671875C255.87259233398436,125.5855888671875,257.4969923339844,120.6761888671875,256.5630923339844,110.4048888671875C256.2972923339844,105.00028886718749,253.83899233398438,100.6495688671875,251.26959233398438,96.3967688671875Z" fill="url(#master_svg4_295_49974)" fill-opacity="1" style="mix-blend-mode:passthrough"/></g></g></g><g><path d="M14.58424970664978,404.9192272949219Q14.47004970664978,403.7700272949219,13.60324970664978,403.1307272949219Q12.73664970664978,402.49132729492186,11.25826970664978,402.49132729492186Q10.249819706649781,402.49132729492186,9.55233970664978,402.77584729492185Q8.85501970664978,403.0603272949219,8.491559706649781,403.55312729492186Q8.12825970664978,404.04592729492185,8.12260970664978,404.6757272949219Q8.11115970664978,405.19902729492185,8.34989970664978,405.5901272949219Q8.58862970664978,405.98112729492186,9.018679706649781,406.26172729492185Q9.44872970664978,406.5424272949219,10.01003970664978,406.7441272949219Q10.57134970664978,406.9457272949219,11.204909706649781,407.08842729492187L12.95544970664978,407.5070272949219Q14.230249706649781,407.7924272949219,15.295849706649781,408.2700272949219Q16.361349706649783,408.74762729492187,17.14534970664978,409.4432272949219Q17.92934970664978,410.1386272949219,18.36224970664978,411.0804272949219Q18.79504970664978,412.02232729492187,18.800749706649782,413.23812729492187Q18.79504970664978,415.02282729492185,17.894949706649783,416.3320272949219Q16.99504970664978,417.64102729492186,15.30634970664978,418.35842729492185Q13.61764970664978,419.0757272949219,11.23537970664978,419.0757272949219Q8.87403970664978,419.0757272949219,7.13020970664978,418.3546272949219Q5.386369706649781,417.6334272949219,4.41313970664978,416.2111272949219Q3.43991970664978,414.7888272949219,3.3884897066497803,412.68242729492187L7.37666970664978,412.68242729492187Q7.44326970664978,413.6604272949219,7.94362970664978,414.3132272949219Q8.44413970664978,414.96572729492186,9.28223970664978,415.2931272949219Q10.12033970664978,415.6203272949219,11.18973970664978,415.6203272949219Q12.23814970664978,415.6203272949219,13.01054970664978,415.3177272949219Q13.78314970664978,415.0152272949219,14.211249706649781,414.4749272949219Q14.63934970664978,413.93452729492185,14.64514970664978,413.2228272949219Q14.63934970664978,412.56632729492185,14.25404970664978,412.12022729492185Q13.86874970664978,411.67402729492187,13.13234970664978,411.3591272949219Q12.39604970664978,411.04412729492185,11.33437970664978,410.78732729492185L9.21088970664978,410.2622272949219Q6.744899706649781,409.6629272949219,5.31872970664978,408.3852272949219Q3.8927097066497804,407.1074272949219,3.8983597066497806,404.9497272949219Q3.8927097066497804,403.1821272949219,4.85077970664978,401.8568872949219Q5.80883970664978,400.53149729492185,7.482209706649781,399.7913672949219Q9.15573970664978,399.0512272949219,11.28874970664978,399.0512272949219Q13.45784970664978,399.0512272949219,15.07694970664978,399.7932972949219Q16.69624970664978,400.53536729492185,17.602849706649778,401.8588172949219Q18.509649706649782,403.1821272949219,18.53434970664978,404.9192272949219L14.58424970664978,404.9192272949219ZM38.74904970664978,406.1370272949219L34.58594970664978,406.1370272949219Q34.46794970664978,405.33032729492186,34.11484970664978,404.69672729492186Q33.76194970664978,404.0630272949219,33.21294970664978,403.6150272949219Q32.66414970664978,403.16682729492186,31.94674970664978,402.9319272949219Q31.22954970664978,402.6969172949219,30.38454970664978,402.6969172949219Q28.87764970664978,402.6969172949219,27.75404970664978,403.44282729492187Q26.63054970664978,404.1886272949219,26.01104970664978,405.61002729492185Q25.39184970664978,407.0313272949219,25.39184970664978,409.0596272949219Q25.39184970664978,411.14512729492185,26.01684970664978,412.5637272949219Q26.64194970664978,413.9821272949219,27.762649706649782,414.7023272949219Q28.88334970664978,415.4224272949219,30.36184970664978,415.4224272949219Q31.18954970664978,415.4224272949219,31.89534970664978,415.20462729492186Q32.60124970664978,414.9867272949219,33.15304970664978,414.56442729492187Q33.70484970664978,414.14192729492186,34.07504970664978,413.53212729492185Q34.44514970664978,412.92222729492187,34.58594970664978,412.14212729492186L38.74904970664978,412.16502729492186Q38.58544970664978,413.5045272949219,37.94414970664978,414.7441272949219Q37.30294970664978,415.9837272949219,36.22514970664978,416.9608272949219Q35.14724970664978,417.93792729492185,33.65734970664978,418.50312729492185Q32.16754970664978,419.06812729492185,30.29334970664978,419.06812729492185Q27.68654970664978,419.06812729492185,25.63444970664978,417.89032729492186Q23.58224970664978,416.71252729492187,22.39784970664978,414.47302729492185Q21.21334970664978,412.23342729492185,21.21334970664978,409.0596272949219Q21.21334970664978,405.8745272949219,22.412049706649782,403.6379272949219Q23.61084970664978,401.40111729492185,25.66574970664978,400.2261672949219Q27.72074970664978,399.0512272949219,30.29334970664978,399.0512272949219Q31.99064970664978,399.0512272949219,33.44044970664978,399.5249772949219Q34.89034970664978,399.99873729492185,36.01104970664978,400.9072972949219Q37.13174970664978,401.8158572949219,37.84144970664978,403.1307272949219Q38.55124970664978,404.4455272949219,38.74904970664978,406.1370272949219ZM41.71364970664978,418.8017272949219L41.71364970664978,399.31760729492186L45.83114970664978,399.31760729492186L45.83114970664978,407.35482729492185L54.18794970664978,407.35482729492185L54.18794970664978,399.31760729492186L58.30554970664978,399.31760729492186L58.30554970664978,418.8017272949219L54.18794970664978,418.8017272949219L54.18794970664978,410.74922729492187L45.83114970664978,410.74922729492187L45.83114970664978,418.8017272949219L41.71364970664978,418.8017272949219ZM79.60294970664978,409.0596272949219Q79.60294970664978,412.2448272949219,78.39844970664979,414.48162729492185Q77.19404970664978,416.71822729492186,75.12764970664978,417.8931272949219Q73.06134970664978,419.06812729492185,70.47734970664978,419.06812729492185Q67.88204970664978,419.06812729492185,65.81844970664977,417.8875272949219Q63.75504970664978,416.70672729492185,62.55334970664978,414.4701272949219Q61.35174970664978,412.23342729492185,61.35174970664978,409.0596272949219Q61.35174970664978,405.8745272949219,62.55334970664978,403.6379272949219Q63.75504970664978,401.40111729492185,65.81844970664977,400.2261672949219Q67.88204970664978,399.0512272949219,70.47734970664978,399.0512272949219Q73.06134970664978,399.0512272949219,75.12764970664978,400.2261672949219Q77.19404970664978,401.40111729492185,78.39844970664979,403.6379272949219Q79.60294970664978,405.8745272949219,79.60294970664978,409.0596272949219ZM75.42454970664978,409.0596272949219Q75.42454970664978,406.9971272949219,74.81084970664978,405.57872729492186Q74.19724970664979,404.1601272949219,73.08504970664978,403.42862729492185Q71.97294970664979,402.6969172949219,70.47734970664978,402.6969172949219Q68.98174970664978,402.6969172949219,67.86954970664978,403.42862729492185Q66.75754970664978,404.1601272949219,66.14384970664977,405.57872729492186Q65.53024970664978,406.9971272949219,65.53024970664978,409.0596272949219Q65.53024970664978,411.12222729492186,66.14384970664977,412.5408272949219Q66.75754970664978,413.9592272949219,67.86954970664978,414.6909272949219Q68.98174970664978,415.4224272949219,70.47734970664978,415.4224272949219Q71.97294970664979,415.4224272949219,73.08504970664978,414.6909272949219Q74.19724970664979,413.9592272949219,74.81084970664978,412.5408272949219Q75.42454970664978,411.12222729492186,75.42454970664978,409.0596272949219ZM100.55224970664977,409.0596272949219Q100.55224970664977,412.2448272949219,99.34764970664978,414.48162729492185Q98.14324970664978,416.71822729492186,96.07684970664978,417.8931272949219Q94.01064970664979,419.06812729492185,91.42664970664978,419.06812729492185Q88.83124970664979,419.06812729492185,86.76774970664978,417.8875272949219Q84.70424970664978,416.70672729492185,83.50254970664977,414.4701272949219Q82.30104970664978,412.23342729492185,82.30104970664978,409.0596272949219Q82.30104970664978,405.8745272949219,83.50254970664977,403.6379272949219Q84.70424970664978,401.40111729492185,86.76774970664978,400.2261672949219Q88.83124970664979,399.0512272949219,91.42664970664978,399.0512272949219Q94.01064970664979,399.0512272949219,96.07684970664978,400.2261672949219Q98.14324970664978,401.40111729492185,99.34764970664978,403.6379272949219Q100.55224970664977,405.8745272949219,100.55224970664977,409.0596272949219ZM96.37374970664978,409.0596272949219Q96.37374970664978,406.9971272949219,95.76014970664978,405.57872729492186Q95.14644970664978,404.1601272949219,94.03424970664977,403.42862729492185Q92.92214970664978,402.6969172949219,91.42664970664978,402.6969172949219Q89.93104970664979,402.6969172949219,88.81884970664979,403.42862729492185Q87.70674970664977,404.1601272949219,87.09314970664978,405.57872729492186Q86.47944970664977,406.9971272949219,86.47944970664977,409.0596272949219Q86.47944970664977,411.12222729492186,87.09314970664978,412.5408272949219Q87.70674970664977,413.9592272949219,88.81884970664979,414.6909272949219Q89.93104970664979,415.4224272949219,91.42664970664978,415.4224272949219Q92.92214970664978,415.4224272949219,94.03424970664977,414.6909272949219Q95.14644970664978,413.9592272949219,95.76014970664978,412.5408272949219Q96.37374970664978,411.12222729492186,96.37374970664978,409.0596272949219ZM103.60084970664978,418.8017272949219L103.60084970664978,399.31760729492186L107.71784970664979,399.31760729492186L107.71784970664979,415.4072272949219L116.06684970664978,415.4072272949219L116.06684970664978,418.8017272949219L103.60084970664978,418.8017272949219ZM125.01584970664977,399.31760729492186L130.09184970664978,399.31760729492186L135.45784970664977,412.4085272949219L135.68684970664978,412.4085272949219L141.0518497066498,399.31760729492186L146.1288497066498,399.31760729492186L146.1288497066498,418.8017272949219L142.1408497066498,418.8017272949219L142.1408497066498,406.1218272949219L141.97284970664978,406.1218272949219L136.93484970664977,418.7104272949219L134.20984970664978,418.7104272949219L129.17184970664977,406.07622729492186L129.00384970664976,406.07622729492186L129.00384970664976,418.8017272949219L125.01584970664977,418.8017272949219L125.01584970664977,399.31760729492186ZM152.8798497066498,418.8017272949219L148.46484970664977,418.8017272949219L155.18584970664978,399.31760729492186L160.4978497066498,399.31760729492186L167.2188497066498,418.8017272949219L162.80484970664978,418.8017272949219L157.91784970664978,403.7700272949219L157.7658497066498,403.7700272949219L152.8798497066498,418.8017272949219ZM152.6058497066498,411.14512729492185L163.03284970664978,411.14512729492185L163.03284970664978,414.3569272949219L152.6058497066498,414.3569272949219L152.6058497066498,411.14512729492185ZM185.85384970664978,399.31760729492186L185.85384970664978,418.8017272949219L182.29184970664977,418.8017272949219L173.82084970664977,406.54042729492187L173.6768497066498,406.54042729492187L173.6768497066498,418.8017272949219L169.55884970664977,418.8017272949219L169.55884970664977,399.31760729492186L173.16684970664977,399.31760729492186L181.58484970664978,411.5713272949219L181.75184970664978,411.5713272949219L181.75184970664978,399.31760729492186L185.85384970664978,399.31760729492186ZM192.60884970664978,418.8017272949219L188.1948497066498,418.8017272949219L194.9148497066498,399.31760729492186L200.22784970664978,399.31760729492186L206.94784970664978,418.8017272949219L202.5338497066498,418.8017272949219L197.6478497066498,403.7700272949219L197.49484970664977,403.7700272949219L192.60884970664978,418.8017272949219ZM192.33484970664978,411.14512729492185L202.76184970664977,411.14512729492185L202.76184970664977,414.3569272949219L192.33484970664978,414.3569272949219L192.33484970664978,411.14512729492185ZM221.29484970664979,405.61182729492185Q221.09484970664977,404.92502729492185,220.73184970664977,404.3875272949219Q220.3678497066498,403.85002729492186,219.85184970664977,403.4703272949219Q219.33484970664978,403.09072729492186,218.66984970664979,402.89392729492187Q218.0048497066498,402.6969172949219,217.2118497066498,402.6969172949219Q215.71984970664977,402.6969172949219,214.59084970664978,403.4370272949219Q213.46084970664978,404.17722729492186,212.8318497066498,405.5929272949219Q212.20384970664978,407.00852729492186,212.20384970664978,409.03682729492186Q212.20384970664978,411.0766272949219,212.82184970664977,412.5036272949219Q213.43984970664977,413.9307272949219,214.57184970664977,414.6766272949219Q215.70484970664978,415.4224272949219,217.24984970664977,415.4224272949219Q218.64384970664977,415.4224272949219,219.63884970664978,414.92402729492187Q220.63284970664978,414.42542729492186,221.1598497066498,413.51012729492186Q221.68684970664978,412.5949272949219,221.68684970664978,411.3544272949219L222.52384970664977,411.47232729492185L217.50884970664978,411.47232729492185L217.50884970664978,408.37472729492185L225.6598497066498,408.37472729492185L225.6598497066498,410.8331272949219Q225.6598497066498,413.3940272949219,224.57384970664978,415.23882729492186Q223.48884970664977,417.0836272949219,221.5868497066498,418.07582729492185Q219.68484970664977,419.06812729492185,217.22684970664977,419.06812729492185Q214.48484970664978,419.06812729492185,212.41284970664978,417.85612729492186Q210.34084970664978,416.6440272949219,209.1828497066498,414.40462729492185Q208.02484970664977,412.16502729492186,208.02484970664977,409.0825272949219Q208.02484970664977,406.70782729492186,208.71684970664978,404.84892729492185Q209.40784970664978,402.98992729492187,210.6528497066498,401.69514729492187Q211.8968497066498,400.40023729492185,213.55484970664978,399.7258072949219Q215.2118497066498,399.0512272949219,217.14284970664977,399.0512272949219Q218.79884970664978,399.0512272949219,220.22584970664977,399.52973729492186Q221.65484970664977,400.0082472949219,222.76284970664977,400.8845472949219Q223.87084970664978,401.7607072949219,224.5748497066498,402.9633272949219Q225.2788497066498,404.16572729492185,225.47684970664977,405.61182729492185L221.29484970664979,405.61182729492185ZM228.7538497066498,418.8017272949219L228.7538497066498,399.31760729492186L241.88284970664978,399.31760729492186L241.88284970664978,402.71207729492187L232.87084970664978,402.71207729492187L232.87084970664978,407.35482729492185L241.20484970664978,407.35482729492185L241.20484970664978,410.74922729492187L232.87084970664978,410.74922729492187L232.87084970664978,415.4072272949219L241.9208497066498,415.4072272949219L241.9208497066498,418.8017272949219L228.7538497066498,418.8017272949219ZM245.1648497066498,399.31760729492186L250.24084970664978,399.31760729492186L255.60684970664977,412.4085272949219L255.83484970664978,412.4085272949219L261.20084970664976,399.31760729492186L266.27784970664976,399.31760729492186L266.27784970664976,418.8017272949219L262.28984970664976,418.8017272949219L262.28984970664976,406.1218272949219L262.12184970664975,406.1218272949219L257.08384970664974,418.7104272949219L254.35884970664978,418.7104272949219L249.3198497066498,406.07622729492186L249.1528497066498,406.07622729492186L249.1528497066498,418.8017272949219L245.1648497066498,418.8017272949219L245.1648497066498,399.31760729492186ZM269.67184970664977,418.8017272949219L269.67184970664977,399.31760729492186L282.8008497066498,399.31760729492186L282.8008497066498,402.71207729492187L273.78984970664976,402.71207729492187L273.78984970664976,407.35482729492185L282.12384970664976,407.35482729492185L282.12384970664976,410.74922729492187L273.78984970664976,410.74922729492187L273.78984970664976,415.4072272949219L282.8388497066498,415.4072272949219L282.8388497066498,418.8017272949219L269.67184970664977,418.8017272949219ZM302.37884970664976,399.31760729492186L302.37884970664976,418.8017272949219L298.8168497066498,418.8017272949219L290.3458497066498,406.54042729492187L290.20084970664976,406.54042729492187L290.20084970664976,418.8017272949219L286.08284970664977,418.8017272949219L286.08284970664977,399.31760729492186L289.6908497066498,399.31760729492186L298.1088497066498,411.5713272949219L298.2758497066498,411.5713272949219L298.2758497066498,399.31760729492186L302.37884970664976,399.31760729492186ZM305.0308497066498,402.71207729492187L305.0308497066498,399.31760729492186L321.0368497066498,399.31760729492186L321.0368497066498,402.71207729492187L315.0698497066498,402.71207729492187L315.0698497066498,418.8017272949219L310.9978497066498,418.8017272949219L310.9978497066498,402.71207729492187L305.0308497066498,402.71207729492187ZM340.45784970664977,404.9192272949219Q340.3438497066498,403.7700272949219,339.4768497066498,403.1307272949219Q338.6108497066498,402.49132729492186,337.1318497066498,402.49132729492186Q336.12384970664976,402.49132729492186,335.4258497066498,402.77584729492185Q334.7288497066498,403.0603272949219,334.3658497066498,403.55312729492186Q334.0018497066498,404.04592729492185,333.99684970664975,404.6757272949219Q333.98484970664975,405.19902729492185,334.2238497066498,405.5901272949219Q334.46284970664976,405.98112729492186,334.89284970664977,406.26172729492185Q335.3228497066498,406.5424272949219,335.88384970664976,406.7441272949219Q336.4448497066498,406.9457272949219,337.0788497066498,407.08842729492187L338.8288497066498,407.5070272949219Q340.1038497066498,407.7924272949219,341.16984970664976,408.2700272949219Q342.23484970664975,408.74762729492187,343.0188497066498,409.4432272949219Q343.8028497066498,410.1386272949219,344.2358497066498,411.0804272949219Q344.6688497066498,412.02232729492187,344.67484970664975,413.23812729492187Q344.6688497066498,415.02282729492185,343.7688497066498,416.3320272949219Q342.86884970664977,417.64102729492186,341.1798497066498,418.35842729492185Q339.49184970664976,419.0757272949219,337.1088497066498,419.0757272949219Q334.7478497066498,419.0757272949219,333.00384970664976,418.3546272949219Q331.2598497066498,417.6334272949219,330.2868497066498,416.2111272949219Q329.31384970664976,414.7888272949219,329.2618497066498,412.68242729492187L333.2508497066498,412.68242729492187Q333.3168497066498,413.6604272949219,333.8178497066498,414.3132272949219Q334.3178497066498,414.96572729492186,335.1558497066498,415.2931272949219Q335.99384970664977,415.6203272949219,337.06384970664976,415.6203272949219Q338.11184970664976,415.6203272949219,338.8848497066498,415.3177272949219Q339.6568497066498,415.0152272949219,340.0848497066498,414.4749272949219Q340.5128497066498,413.93452729492185,340.5188497066498,413.2228272949219Q340.5128497066498,412.56632729492185,340.1278497066498,412.12022729492185Q339.7428497066498,411.67402729492187,339.00584970664977,411.3591272949219Q338.2698497066498,411.04412729492185,337.20784970664977,410.78732729492185L335.0848497066498,410.2622272949219Q332.61884970664977,409.6629272949219,331.1928497066498,408.3852272949219Q329.7668497066498,407.1074272949219,329.7718497066498,404.9497272949219Q329.7668497066498,403.1821272949219,330.72484970664976,401.8568872949219Q331.6828497066498,400.53149729492185,333.3558497066498,399.7913672949219Q335.02984970664977,399.0512272949219,337.1628497066498,399.0512272949219Q339.3318497066498,399.0512272949219,340.95084970664976,399.7932972949219Q342.5698497066498,400.53536729492185,343.4768497066498,401.8588172949219Q344.38384970664976,403.1821272949219,344.40784970664976,404.9192272949219L340.45784970664977,404.9192272949219ZM346.2878497066498,399.31760729492186L350.90784970664976,399.31760729492186L355.3528497066498,407.70482729492187L355.53484970664977,407.70482729492187L359.97984970664976,399.31760729492186L364.59984970664976,399.31760729492186L357.49184970664976,411.9138272949219L357.49184970664976,418.8017272949219L353.3968497066498,418.8017272949219L353.3968497066498,411.9138272949219L346.2878497066498,399.31760729492186ZM377.4088497066498,404.9192272949219Q377.29484970664976,403.7700272949219,376.4278497066498,403.1307272949219Q375.56184970664975,402.49132729492186,374.0838497066498,402.49132729492186Q373.0748497066498,402.49132729492186,372.3778497066498,402.77584729492185Q371.6798497066498,403.0603272949219,371.3168497066498,403.55312729492186Q370.9528497066498,404.04592729492185,370.9478497066498,404.6757272949219Q370.9358497066498,405.19902729492185,371.17484970664975,405.5901272949219Q371.4138497066498,405.98112729492186,371.8438497066498,406.26172729492185Q372.2738497066498,406.5424272949219,372.8348497066498,406.7441272949219Q373.3968497066498,406.9457272949219,374.02984970664977,407.08842729492187L375.7808497066498,407.5070272949219Q377.0558497066498,407.7924272949219,378.1208497066498,408.2700272949219Q379.18684970664975,408.74762729492187,379.9708497066498,409.4432272949219Q380.7548497066498,410.1386272949219,381.18684970664975,411.0804272949219Q381.6198497066498,412.02232729492187,381.6258497066498,413.23812729492187Q381.6198497066498,415.02282729492185,380.71984970664977,416.3320272949219Q379.8198497066498,417.64102729492186,378.1318497066498,418.35842729492185Q376.4428497066498,419.0757272949219,374.0608497066498,419.0757272949219Q371.69884970664975,419.0757272949219,369.9548497066498,418.3546272949219Q368.2118497066498,417.6334272949219,367.2378497066498,416.2111272949219Q366.2648497066498,414.7888272949219,366.2138497066498,412.68242729492187L370.2018497066498,412.68242729492187Q370.2688497066498,413.6604272949219,370.7688497066498,414.3132272949219Q371.2688497066498,414.96572729492186,372.10684970664977,415.2931272949219Q372.94584970664977,415.6203272949219,374.0148497066498,415.6203272949219Q375.0628497066498,415.6203272949219,375.83584970664975,415.3177272949219Q376.6078497066498,415.0152272949219,377.0358497066498,414.4749272949219Q377.4648497066498,413.93452729492185,377.46984970664977,413.2228272949219Q377.4648497066498,412.56632729492185,377.0788497066498,412.12022729492185Q376.69384970664976,411.67402729492187,375.95784970664977,411.3591272949219Q375.2208497066498,411.04412729492185,374.15984970664977,410.78732729492185L372.0358497066498,410.2622272949219Q369.5698497066498,409.6629272949219,368.1438497066498,408.3852272949219Q366.71784970664976,407.1074272949219,366.7238497066498,404.9497272949219Q366.71784970664976,403.1821272949219,367.6758497066498,401.8568872949219Q368.63384970664976,400.53149729492185,370.30684970664976,399.7913672949219Q371.9808497066498,399.0512272949219,374.1138497066498,399.0512272949219Q376.28284970664976,399.0512272949219,377.9018497066498,399.7932972949219Q379.5218497066498,400.53536729492185,380.4278497066498,401.8588172949219Q381.3348497066498,403.1821272949219,381.35984970664975,404.9192272949219L377.4088497066498,404.9192272949219ZM383.64284970664977,402.71207729492187L383.64284970664977,399.31760729492186L399.6488497066498,399.31760729492186L399.6488497066498,402.71207729492187L393.68184970664976,402.71207729492187L393.68184970664976,418.8017272949219L389.60984970664975,418.8017272949219L389.60984970664975,402.71207729492187L383.64284970664977,402.71207729492187ZM402.2938497066498,418.8017272949219L402.2938497066498,399.31760729492186L415.4228497066498,399.31760729492186L415.4228497066498,402.71207729492187L406.4108497066498,402.71207729492187L406.4108497066498,407.35482729492185L414.7448497066498,407.35482729492185L414.7448497066498,410.74922729492187L406.4108497066498,410.74922729492187L406.4108497066498,415.4072272949219L415.46084970664975,415.4072272949219L415.46084970664975,418.8017272949219L402.2938497066498,418.8017272949219ZM418.7048497066498,399.31760729492186L423.7808497066498,399.31760729492186L429.1468497066498,412.4085272949219L429.3748497066498,412.4085272949219L434.7408497066498,399.31760729492186L439.8178497066498,399.31760729492186L439.8178497066498,418.8017272949219L435.8298497066498,418.8017272949219L435.8298497066498,406.1218272949219L435.6618497066498,406.1218272949219L430.62384970664976,418.7104272949219L427.8988497066498,418.7104272949219L422.85984970664975,406.07622729492186L422.6928497066498,406.07622729492186L422.6928497066498,418.8017272949219L418.7048497066498,418.8017272949219L418.7048497066498,399.31760729492186Z" fill="#FFFFFF" fill-opacity="1"/></g></g></g></g></svg>