<svg xmlns="http://www.w3.org/2000/svg" xmlns:xlink="http://www.w3.org/1999/xlink" fill="none" version="1.1" width="308" height="308" viewBox="0 0 308 308"><defs><clipPath id="master_svg0_441_63590"><rect x="0" y="0" width="308" height="308" rx="0"/></clipPath><linearGradient x1="-0.18159009516239166" y1="-0.4661065638065338" x2="0.49565317425638183" y2="0.8154362686918623" id="master_svg1_295_56464"><stop offset="0%" stop-color="#2D73A2" stop-opacity="1"/><stop offset="100%" stop-color="#263468" stop-opacity="1"/></linearGradient><linearGradient x1="-1.5351207256317139" y1="-0.06380368024110794" x2="-0.2840902976399233" y2="2.2884467518202873" id="master_svg2_295_56467"><stop offset="40.779998898506165%" stop-color="#F4DA37" stop-opacity="1"/><stop offset="74.29999709129333%" stop-color="#F2612C" stop-opacity="1"/></linearGradient><linearGradient x1="-0.6076258420944214" y1="-2.2558696269989014" x2="2.8935322887341486" y2="1.413923019337349" id="master_svg3_295_56461"><stop offset="0%" stop-color="#2D73A2" stop-opacity="1"/><stop offset="100%" stop-color="#263468" stop-opacity="1"/></linearGradient><linearGradient x1="-2.3629961013793945" y1="-1.8954817056655884" x2="3.5291258833844728" y2="1.9256193116702" id="master_svg4_295_49974"><stop offset="40.779998898506165%" stop-color="#F4DA37" stop-opacity="1"/><stop offset="74.29999709129333%" stop-color="#F2612C" stop-opacity="1"/></linearGradient></defs><g><g><g><g clip-path="url(#master_svg0_441_63590)"><g><g><path d="M285.65470312499997,251.2006201171875C283.453703125,242.7836201171875,281.604703125,234.2776201171875,279.57970312500004,225.7726201171875C267.341703125,175.0046201171875,255.014703125,124.2366201171875,242.776703125,73.4688201171875C239.078703125,57.8752201171875,235.644703125,42.2816201171875,231.946703125,26.6880201171875C231.418703125,24.2958201171875,231.154703125,21.1948201171875,227.896703125,21.106220117187497C225.343703125,21.017620117187498,224.638703125,23.8528201171875,223.582703125,25.7134201171875C222.437703125,27.6626201171875,221.469703125,29.7004201171875,220.500703125,31.6496201171875C199.985703125,71.2538201171875,179.471703125,110.8576201171875,158.868403125,150.4626201171875C157.635803125,152.8546201171875,157.019403125,156.5756201171875,153.93780312500002,156.7526201171875C150.59200312500002,156.9296201171875,150.239903125,153.0316201171875,149.095303125,150.6396201171875C134.30350312500002,121.3126201171875,119.86390312500001,91.8090201171875,104.896103125,62.5710201171875C100.493803125,53.8882201171875,96.971903125,45.8256201171875,103.223203125,36.6998201171875C103.839503125,35.813820117187504,103.399303125,34.484820117187496,101.550303125,33.7760201171875C98.204603125,36.4340201171875,94.594703125,39.1806201171875,89.576003125,43.1676201171875C98.11650312500001,26.7766201171875,112.203903125,19.1570201171875,125.32280312500001,10.3856201171875C112.02780312499999,11.4488201171875,100.581803125,16.3218201171875,90.368403125,24.561620117187502C64.482853125,45.5598201171875,50.571503125,92.5178201171875,71.966803125,126.8056201171875C74.079903125,130.1726201171875,75.84080312500001,133.6286201171875,77.865903125,136.99462011718748C91.337003125,159.0566201171875,108.41790312500001,178.5486201171875,122.945503125,199.9006201171875C133.42300312499998,215.3176201171875,141.963503125,231.6196201171875,144.69300312500002,250.4916201171875C146.013703125,259.7056201171875,143.812503125,268.7436201171875,144.34080312499998,278.1346201171875C164.06270312499998,234.6326201171875,188.62770312499998,193.9646201171875,210.551703125,150.8166201171875C213.544703125,154.8036201171875,213.721703125,157.6386201171875,214.161703125,160.3856201171875C219.267703125,189.7116201171875,224.374703125,219.0386201171875,229.393703125,248.3656201171875C230.273703125,253.5036201171875,230.802703125,258.46562011718754,237.933703125,258.3766201171875C251.933703125,258.1116201171875,265.844703125,258.2886201171875,279.843703125,258.3766201171875C285.126703125,258.5546201171875,286.975703125,256.42762011718753,285.65470312499997,251.2006201171875ZM258.53670312500003,222.2286201171875C256.599703125,226.8356201171875,254.750703125,231.7086201171875,250.084703125,235.9616201171875C250.700703125,229.8476201171875,251.492703125,224.7976201171875,251.756703125,219.7476201171875C252.813703125,204.0656201171875,247.178703125,189.8006201171875,241.015703125,175.8906201171875C233.971703125,159.9426201171875,225.959703125,144.4376201171875,219.003703125,128.48962011718748C212.928703125,114.4906201171875,208.438703125,99.9602201171875,210.375703125,84.2780201171875C211.343703125,76.9242201171875,215.305703125,69.7476201171875,220.676703125,62.6596201171875C218.299703125,71.4310201171875,217.771703125,75.2408201171875,217.859703125,79.4936201171875C217.947703125,91.8976201171875,223.053703125,103.0612201171875,228.424703125,113.9586201171875C237.229703125,131.7676201171875,248.059703125,148.6016201171875,255.454703125,167.1186201171875C262.498703125,185.1046201171875,266.372703125,203.4446201171875,258.53670312500003,222.2286201171875Z" fill="url(#master_svg1_295_56464)" fill-opacity="1" style="mix-blend-mode:passthrough"/></g><g><path d="M258.536489453125,222.22866796875C256.599489453125,226.83566796875,254.750489453125,231.70866796875,250.083989453125,235.96166796875C250.700389453125,229.84766796875,251.492789453125,224.79766796875,251.75688945312498,219.74766796875C252.813489453125,204.06566796875,247.178489453125,189.80066796875002,241.015289453125,175.89066796875C233.971589453125,159.94246796875,225.959289453125,144.43746796875,219.003689453125,128.48946796875C212.928499453125,114.49066796875,208.438139453125,99.96026796875,210.375166453125,84.27806796875001C211.343679453125,76.92426796875,215.305759453125,69.74766796875,220.676589453125,62.65966796875C218.299329453125,71.43105796875,217.771069453125,75.24086796875,217.859099453125,79.49366796875C217.947149453125,91.89766796875,223.053789453125,103.06126796875,228.424689453125,113.95906796874999C237.229289453125,131.76766796875,248.058989453125,148.60166796875,255.454889453125,167.11866796875C262.498589453125,185.10466796875,266.372589453125,203.44466796875,258.536489453125,222.22866796875Z" fill="#FFFFFF" fill-opacity="1" style="mix-blend-mode:passthrough"/></g><g><path d="M112.9083140625,300.72805761718746C112.9083140625,292.3110576171875,113.1724140625,285.3110576171875,112.8202140625,278.40105761718746C111.9398140625,256.8710576171875,102.2547140625,238.4420576171875,91.77721406250001,220.4560576171875C79.8909140625,199.8120576171875,66.6840140625,179.96605761718752,54.8858140625,159.2336576171875C44.5844140625,141.1592576171875,36.3080700625,122.0216576171875,36.6602559625,100.49185761718749C36.8363460625,90.3028576171875,41.238654062500004,80.02525761718749,47.4899140625,69.6590576171875C45.5529340625,81.8858576171875,45.4648840625,87.1132576171875,46.0812040625,93.0494576171875C48.0182140625,109.9720576171875,56.5587140625,124.3252576171875,65.45141406249999,138.32405761718752C79.9790140625,161.27145761718748,97.23611406250001,182.5350576171875,110.0028140625,206.6350576171875C122.3292140625,229.9360576171875,130.3414140625,254.2130576171875,122.3292140625,280.97005761718754C120.3922140625,287.4380576171875,118.6313140625,294.2600576171875,112.9083140625,300.72805761718746Z" fill="url(#master_svg2_295_56467)" fill-opacity="1" style="mix-blend-mode:passthrough"/></g><g><path d="M132.36680234375,36.1680787109375C132.45480234375,35.9021787109375,132.54290234375,35.636478710937496,132.54290234375,35.3705787109375C141.78770234375,36.0794787109375,150.94450234375,36.6109787109375,160.18940234375,37.4969787109375C163.18290234375002,37.7628787109375,165.47220234374998,37.2311787109375,168.02550234375,35.547878710937496C175.15730234375,30.5862787109375,182.46510234375,25.8904787109375,189.68490234375,21.1060787109375C195.58400234375,17.2075787109375,201.48310234375,13.2206287109375,208.35070234375002,8.6134287109375C206.41370234375,8.436228710937499,205.62130234375002,8.3476287109375,204.91690234375,8.2590287109375C190.21320234375,7.0186287109375005,175.50950234375,5.7782287109374995,160.80570234375,4.4492272109375C158.25240234375,4.1834247109375,156.22730234375,4.7150297109375,154.11420234375,6.1326287109374995C146.01400234375,11.625828710937501,137.82570234375,16.9417787109375,129.72540234375,22.3463787109375C124.53070234375,25.8017787109375,119.33594234375,29.3457787109375,113.52490234375,33.332778710937504C117.31089234375,33.7757787109375,120.04032234375,34.1301787109375,122.76975234375,34.3959787109375C128.05250234375,34.927578710937496,128.05250234375,34.838978710937496,127.17210234375,40.6865787109375C125.05900234375,46.0911787109375,124.53070234375,51.9387787109375,123.38608234375,57.6091787109375C121.44906234375,66.9121787109375,121.71320234375,67.0008787109375,130.60590234375,67.0008787109375C132.54290234375,67.0008787109375,133.15920234375,66.3806787109375,133.07120234375,64.25417871093751C132.80700234375,55.5713787109375,132.71900234375,46.8000787109375,132.54290234375,38.1171787109375C132.36680234375,37.3198787109375,132.36680234375,36.6996787109375,132.36680234375,36.1680787109375Z" fill="url(#master_svg3_295_56461)" fill-opacity="1" style="mix-blend-mode:passthrough"/></g><g><path d="M191.0054140625,27.3967688671875C190.0369140625,25.8019665571875,189.06841406249998,25.2703678671875,187.4836140625,26.4221708671875C180.5279140625,31.2065688671875,173.5723140625,35.9023888671875,166.6166140625,40.5981888671875C165.2959140625,40.6867888671875,163.9753140625,40.8639888671875,162.7426140625,40.7753888671875C155.4348140625,40.243788867187504,148.0389140625,39.6235888671875,140.7310640625,39.091988867187496C139.0581840625,39.003388867187496,137.2972640625,38.2945888671875,136.9450710625,41.2183888671875C136.1526600625,47.3317888671875,136.3287500625,53.2679888671875,138.7940440625,58.9383888671875C146.1018840625,81.4427888671875,174.0141140625,86.9033888671875,188.7178140625,69.00618886718749C190.7429140625,66.6139888671875,191.4626140625,65.5559888671875,193.5211140625,61.4157888671875C195.5797140625,56.5855888671875,197.1939140625,51.6761888671875,196.2659140625,41.4048888671875C196.0018140625,36.0002888671875,193.5588140625,31.6495688671875,191.0054140625,27.3967688671875Z" fill="url(#master_svg4_295_49974)" fill-opacity="1" style="mix-blend-mode:passthrough"/></g></g></g></g></g></g></svg>